<?xml version="1.0" encoding="UTF-8" standalone="no"?>
<!-- Created with Inkscape (http://www.inkscape.org/) -->

<svg
   xmlns:dc="http://purl.org/dc/elements/1.1/"
   xmlns:cc="http://creativecommons.org/ns#"
   xmlns:rdf="http://www.w3.org/1999/02/22-rdf-syntax-ns#"
   xmlns:svg="http://www.w3.org/2000/svg"
   xmlns="http://www.w3.org/2000/svg"
   xmlns:xlink="http://www.w3.org/1999/xlink"
   xmlns:sodipodi="http://sodipodi.sourceforge.net/DTD/sodipodi-0.dtd"
   xmlns:inkscape="http://www.inkscape.org/namespaces/inkscape"
   width="450"
   height="200"
   viewBox="0 0 449.99997 199.99999"
   id="svg2"
   version="1.1"
   inkscape:version="0.91 r13725"
   sodipodi:docname="logo_hacklol_modifier.svg"
   inkscape:export-filename="E:\Eliastik\Téléchargements\hacklol\images\logo_hacklol.png"
   inkscape:export-xdpi="773.23004"
   inkscape:export-ydpi="773.23004">
  <sodipodi:namedview
     id="base"
     pagecolor="#ffffff"
     bordercolor="#666666"
     borderopacity="1.0"
     inkscape:pageopacity="0.0"
     inkscape:pageshadow="2"
     inkscape:zoom="2.8"
     inkscape:cx="221.07143"
     inkscape:cy="110.05111"
     inkscape:document-units="px"
     inkscape:current-layer="layer3"
     showgrid="false"
     units="px"
     inkscape:window-width="1920"
     inkscape:window-height="993"
     inkscape:window-x="1280"
     inkscape:window-y="24"
     inkscape:window-maximized="1"
     inkscape:snap-text-baseline="false">
    <inkscape:grid
       id="grid3336"
       type="xygrid" />
  </sodipodi:namedview>
  <defs
     id="defs4">
    <linearGradient
       inkscape:collect="always"
       id="linearGradient5200">
      <stop
         style="stop-color:#000000;stop-opacity:0.2"
         offset="0"
         id="stop5202" />
      <stop
         style="stop-color:#000000;stop-opacity:0;"
         offset="1"
         id="stop5204" />
    </linearGradient>
    <linearGradient
       inkscape:collect="always"
       xlink:href="#linearGradient5200"
       id="linearGradient5206"
       x1="55.157326"
       y1="66.137207"
       x2="78.571968"
       y2="89.551849"
       gradientUnits="userSpaceOnUse" />
    <mask
       maskUnits="userSpaceOnUse"
       id="mask5264">
      <rect
         style="fill:#266cff;fill-opacity:1;fill-rule:evenodd;stroke:none;stroke-width:1px;stroke-linecap:butt;stroke-linejoin:miter;stroke-opacity:1"
         id="rect5266"
         width="59.999992"
         height="59.999996"
         x="20"
         y="29.999893"
         ry="10.000002"
         rx="10.000002" />
    </mask>
    <mask
       maskUnits="userSpaceOnUse"
       id="mask5268-0">
      <rect
         style="fill:#266cff;fill-opacity:1;fill-rule:evenodd;stroke:none;stroke-width:1px;stroke-linecap:butt;stroke-linejoin:miter;stroke-opacity:1"
         id="rect5270-8"
         width="59.999992"
         height="59.999996"
         x="20"
         y="29.999893"
         ry="10.000002"
         rx="10.000002" />
    </mask>
  </defs>
  <metadata
     id="metadata7">
    <rdf:RDF>
      <cc:Work
         rdf:about="">
        <dc:format>image/svg+xml</dc:format>
        <dc:type
           rdf:resource="http://purl.org/dc/dcmitype/StillImage" />
        <dc:title></dc:title>
      </cc:Work>
    </rdf:RDF>
  </metadata>
  <g
     transform="translate(0,-852.36225)"
     id="layer1"
     inkscape:groupmode="layer"
     inkscape:label="Fond"
     sodipodi:insensitive="true">
    <rect
       rx="10.000002"
       ry="10.000002"
       y="882.36224"
       x="20"
       height="59.999996"
       width="59.999992"
       id="rect3338"
       style="fill:#266cff;fill-opacity:1;fill-rule:evenodd;stroke:none;stroke-width:1px;stroke-linecap:butt;stroke-linejoin:miter;stroke-opacity:1" />
  </g>
  <g
     inkscape:label="Motif"
     id="layer2"
     inkscape:groupmode="layer"
     style="display:inline">
    <rect
       rx="10.000002"
       ry="10.000002"
       y="29.999893"
       x="20"
       height="59.999996"
       width="59.999992"
       id="rect5274"
       style="fill:#266cff;fill-opacity:1;fill-rule:evenodd;stroke:none;stroke-width:1px;stroke-linecap:butt;stroke-linejoin:miter;stroke-opacity:1" />
    <path
       style="font-style:normal;font-variant:normal;font-weight:500;font-stretch:normal;font-size:60px;line-height:100%;font-family:eurofurence;-inkscape-font-specification:'eurofurence Medium';text-align:center;letter-spacing:0px;word-spacing:0px;writing-mode:lr-tb;text-anchor:middle;fill:url(#linearGradient5206);fill-opacity:1;stroke:none;stroke-width:1;stroke-linecap:butt;stroke-linejoin:miter;stroke-opacity:1"
       d="m 43.294922,41.369141 c -1.255914,0 -1.884766,0.626898 -1.884766,1.882812 l 0,33.730469 c 0,0.678764 0.1898,1.166592 0.556641,1.478516 0.04505,0.05265 0.09383,0.101431 0.146484,0.146484 0.0467,0.05492 0.09743,0.105647 0.152344,0.152344 0.04505,0.05265 0.09383,0.101431 0.146484,0.146484 0.04703,0.05531 0.09893,0.105374 0.154297,0.152344 0.04509,0.05256 0.09381,0.101517 0.146485,0.146484 0.04497,0.05268 0.09392,0.1014 0.146484,0.146484 0.04697,0.05537 0.09703,0.107269 0.152344,0.154297 0.04505,0.05266 0.09383,0.101432 0.146484,0.146485 0.0467,0.05492 0.09743,0.105647 0.152344,0.152344 0.04505,0.05265 0.09383,0.101431 0.146484,0.146484 0.04611,0.05423 0.09627,0.104181 0.150391,0.15039 0.04621,0.05412 0.09616,0.104284 0.15039,0.150391 0.04505,0.05265 0.09383,0.101432 0.146485,0.146485 0.0467,0.05492 0.09743,0.105647 0.152344,0.152343 0.04505,0.05266 0.09383,0.101432 0.146484,0.146485 0.04703,0.05531 0.09893,0.105374 0.154297,0.152343 0.04508,0.05256 0.09381,0.101517 0.146484,0.146485 0.04497,0.05268 0.09393,0.1014 0.146485,0.146484 0.04697,0.05537 0.09703,0.107268 0.152343,0.154297 0.04505,0.05265 0.09383,0.101431 0.146485,0.146484 0.0467,0.05492 0.09743,0.105648 0.152343,0.152344 0.04505,0.05265 0.09383,0.101432 0.146485,0.146485 0.04611,0.05423 0.09627,0.10418 0.150391,0.15039 0.04671,0.05471 0.09744,0.105821 0.152343,0.152344 0.0442,0.05144 0.09305,0.09842 0.144531,0.142578 0.04697,0.05537 0.09704,0.107268 0.152344,0.154297 0.04505,0.05265 0.09383,0.101431 0.146485,0.146484 0.04703,0.05531 0.09893,0.105374 0.154297,0.152344 0.04416,0.05148 0.09114,0.100334 0.142578,0.144531 0.04652,0.05491 0.09763,0.105629 0.152343,0.152344 0.04621,0.05412 0.09617,0.104283 0.150391,0.150391 0.04505,0.05265 0.09383,0.101431 0.146484,0.146484 0.0467,0.05492 0.09743,0.105647 0.152344,0.152344 0.04505,0.05265 0.09383,0.101431 0.146484,0.146484 0.04611,0.05423 0.09627,0.104181 0.150391,0.150391 0.04671,0.05471 0.09744,0.105821 0.152344,0.152344 0.0442,0.05144 0.09305,0.09842 0.144531,0.142578 0.04697,0.05537 0.09703,0.107268 0.152344,0.154296 0.04505,0.05266 0.09383,0.101432 0.146484,0.146485 0.04703,0.05531 0.09893,0.105374 0.154297,0.152344 0.04416,0.05148 0.09114,0.100333 0.142578,0.144531 0.04652,0.05491 0.09763,0.105629 0.152344,0.152344 0.04621,0.05412 0.09616,0.104283 0.150391,0.15039 0.04505,0.05266 0.09383,0.101432 0.146484,0.146485 0.0467,0.05492 0.09743,0.105647 0.152344,0.152343 0.04505,0.05266 0.09383,0.101432 0.146484,0.146485 0.04611,0.05423 0.09627,0.104181 0.150391,0.15039 0.04671,0.05472 0.09744,0.105821 0.152343,0.152344 0.0442,0.05144 0.09305,0.09842 0.144532,0.142578 0.04697,0.05537 0.09703,0.107268 0.152344,0.154297 0.04505,0.05265 0.09383,0.101432 0.146484,0.146484 0.04703,0.05531 0.09893,0.105374 0.154297,0.152344 0.04416,0.05148 0.09114,0.100334 0.142578,0.144532 0.04652,0.05491 0.09763,0.105628 0.152344,0.152343 0.04621,0.05412 0.09616,0.104283 0.15039,0.150391 0.04505,0.05265 0.09383,0.101431 0.146485,0.146484 0.0467,0.05492 0.09743,0.105648 0.152343,0.152344 0.04505,0.05265 0.09383,0.101431 0.146485,0.146484 0.04703,0.05531 0.09893,0.105374 0.154297,0.152344 0.04508,0.05256 0.09381,0.101517 0.146484,0.146484 0.04497,0.05268 0.09392,0.1014 0.146484,0.146485 0.04697,0.05537 0.09703,0.107268 0.152344,0.154297 0.04505,0.05265 0.09383,0.101431 0.146485,0.146484 0.04703,0.05531 0.09893,0.105374 0.154296,0.152344 0.04475,0.05217 0.0923,0.101792 0.144532,0.146484 0.04611,0.05423 0.09627,0.104181 0.15039,0.150391 0.04621,0.05412 0.09617,0.104283 0.150391,0.150391 0.04505,0.05265 0.09383,0.101431 0.146484,0.146484 0.0467,0.05492 0.09743,0.105647 0.152344,0.152344 0.04505,0.05265 0.09383,0.101431 0.146484,0.146484 0.04703,0.05531 0.09893,0.105374 0.154297,0.152344 0.04509,0.05256 0.09381,0.101517 0.146485,0.146484 0.04497,0.05268 0.09392,0.1014 0.146484,0.146484 0.04697,0.05537 0.09703,0.107269 0.152344,0.154297 0.04505,0.05266 0.09383,0.101432 0.146484,0.146485 0.0467,0.05492 0.09743,0.105647 0.152344,0.152344 0.04505,0.05265 0.09383,0.101431 0.146484,0.146484 0.04611,0.05423 0.09627,0.104181 0.150391,0.15039 0.04621,0.05412 0.09616,0.104284 0.15039,0.150391 0.04505,0.05265 0.09383,0.101432 0.146485,0.146485 0.0467,0.05492 0.09743,0.105647 0.152344,0.152343 0.04505,0.05266 0.09383,0.101432 0.146484,0.146485 0.04703,0.05531 0.09893,0.105374 0.154297,0.152343 0.04508,0.05256 0.09381,0.101517 0.146484,0.146485 0.04497,0.05268 0.09393,0.1014 0.146485,0.146484 0.04697,0.05537 0.09703,0.107268 0.152343,0.154297 0.04505,0.05265 0.09383,0.101431 0.146485,0.146484 0.0467,0.05492 0.09743,0.105648 0.152343,0.152344 0.04505,0.05265 0.09383,0.101432 0.146485,0.146485 0.04611,0.05423 0.09627,0.10418 0.150391,0.15039 0.04671,0.05471 0.09744,0.105821 0.152343,0.152344 0.0442,0.05144 0.09305,0.09842 0.144531,0.142578 0.04697,0.05537 0.09704,0.107268 0.152344,0.154297 0.04505,0.05265 0.09383,0.101431 0.146485,0.146484 0.04703,0.05531 0.09893,0.105374 0.154297,0.152344 0.04416,0.05148 0.09114,0.100334 0.142578,0.144531 0.04652,0.05491 0.09763,0.105629 0.152343,0.152344 0.04621,0.05412 0.09617,0.104283 0.150391,0.150391 0.04505,0.05265 0.09383,0.101431 0.146484,0.146484 0.0467,0.05492 0.09743,0.105647 0.152344,0.152344 0.04505,0.05265 0.09383,0.101431 0.146484,0.146484 0.04611,0.05423 0.09627,0.104181 0.150391,0.150391 0.04671,0.05471 0.09744,0.105821 0.152344,0.152344 0.0442,0.05144 0.09305,0.09842 0.144531,0.142578 0.04697,0.05537 0.09703,0.107268 0.152344,0.154296 0.04505,0.05266 0.09383,0.101432 0.146484,0.146485 0.04703,0.05531 0.09893,0.105374 0.154297,0.152344 0.04416,0.05148 0.09114,0.100333 0.142578,0.144531 0.04652,0.05491 0.09763,0.105629 0.152344,0.152344 0.04621,0.05412 0.09616,0.104283 0.150391,0.15039 0.04505,0.05266 0.09383,0.101432 0.146484,0.146485 0.0467,0.05492 0.09743,0.105647 0.152344,0.152343 0.04505,0.05266 0.09383,0.101432 0.146484,0.146485 0.04611,0.05423 0.09627,0.104181 0.150391,0.15039 0.04671,0.05472 0.09744,0.105821 0.152343,0.152344 0.0442,0.05144 0.09305,0.09842 0.144532,0.142578 0.04697,0.05537 0.09703,0.107268 0.152344,0.154297 0.04505,0.05265 0.09383,0.101432 0.146484,0.146484 0.04703,0.05531 0.09893,0.105374 0.154297,0.152344 0.04416,0.05148 0.09114,0.100334 0.142578,0.144532 0.04652,0.05491 0.09763,0.105628 0.152344,0.152343 0.04621,0.05412 0.09616,0.104283 0.15039,0.150391 0.04505,0.05265 0.09383,0.101431 0.146485,0.146484 0.0467,0.05492 0.09743,0.105648 0.152343,0.152344 0.04505,0.05265 0.09383,0.101431 0.146485,0.146484 0.04703,0.05531 0.09893,0.105374 0.154297,0.152344 0.04508,0.05256 0.09381,0.101517 0.146484,0.146484 0.04497,0.05268 0.09392,0.1014 0.146484,0.146485 0.04697,0.05537 0.09703,0.107268 0.152344,0.154297 0.04505,0.05265 0.09383,0.101431 0.146485,0.146484 0.04703,0.05531 0.09893,0.105374 0.154296,0.152344 0.04475,0.05217 0.0923,0.101792 0.144532,0.146484 0.04611,0.05423 0.09627,0.104181 0.15039,0.150391 0.04621,0.05412 0.09617,0.104283 0.150391,0.150391 0.04505,0.05265 0.09383,0.101431 0.146484,0.146484 0.0467,0.05492 0.09743,0.105647 0.152344,0.152344 0.04505,0.05265 0.09383,0.101431 0.146484,0.146484 0.04703,0.05531 0.09893,0.105374 0.154297,0.152344 0.04509,0.05256 0.09381,0.101517 0.146485,0.146484 0.04497,0.05268 0.09392,0.1014 0.146484,0.146484 0.04697,0.05537 0.09703,0.107269 0.152344,0.154297 0.04505,0.05266 0.09383,0.101432 0.146484,0.146485 0.0467,0.05492 0.09743,0.105647 0.152344,0.152344 0.04505,0.05265 0.09383,0.101431 0.146484,0.146484 0.04611,0.05423 0.09627,0.104178 0.150391,0.150388 0.04621,0.0541 0.09616,0.10429 0.15039,0.15039 0.04505,0.0527 0.09383,0.10143 0.146485,0.14649 0.0467,0.0549 0.09743,0.10564 0.152344,0.15234 0.04505,0.0527 0.09383,0.10143 0.146484,0.14649 0.04703,0.0553 0.09893,0.10537 0.154297,0.15234 0.04508,0.0526 0.09381,0.10152 0.146484,0.14648 0.04497,0.0527 0.09393,0.1014 0.146485,0.14649 0.04697,0.0554 0.09704,0.10727 0.152343,0.1543 0.04505,0.0526 0.09383,0.10143 0.146485,0.14648 0.0467,0.0549 0.09743,0.10565 0.152343,0.15234 0.04505,0.0527 0.09383,0.10143 0.146485,0.14649 0.04611,0.0542 0.09627,0.10418 0.150391,0.15039 0.04621,0.0541 0.09616,0.10428 0.15039,0.15039 0.04469,0.0522 0.09431,0.0998 0.146484,0.14453 0.04697,0.0554 0.09704,0.10727 0.152344,0.1543 0.04505,0.0526 0.09383,0.10143 0.146485,0.14648 0.04703,0.0553 0.09893,0.10538 0.154297,0.15234 0.04416,0.0515 0.09113,0.10034 0.142578,0.14454 0.04652,0.0549 0.09763,0.10563 0.152343,0.15234 0.04621,0.0541 0.09617,0.10428 0.150391,0.15039 0.04505,0.0526 0.09383,0.10143 0.146484,0.14649 0.0467,0.0549 0.09743,0.10564 0.152344,0.15234 0.04505,0.0526 0.09383,0.10143 0.146484,0.14648 0.04611,0.0542 0.09627,0.10418 0.150391,0.15039 0.04672,0.0547 0.09744,0.10582 0.152344,0.15235 0.0442,0.0514 0.09305,0.0984 0.144531,0.14258 0.04697,0.0554 0.09704,0.10726 0.152344,0.15429 0.04505,0.0527 0.09383,0.10143 0.146484,0.14649 0.04703,0.0553 0.09893,0.10537 0.154297,0.15234 0.04416,0.0515 0.09114,0.10033 0.142578,0.14453 0.04652,0.0549 0.09763,0.10563 0.152344,0.15235 0.04621,0.0541 0.09616,0.10428 0.150391,0.15039 0.04505,0.0526 0.09383,0.10143 0.146484,0.14648 0.0467,0.0549 0.09743,0.10565 0.152344,0.15234 0.04505,0.0527 0.09383,0.10144 0.146484,0.14649 0.04611,0.0542 0.09627,0.10418 0.150391,0.15039 0.04672,0.0547 0.09744,0.10582 0.152343,0.15234 0.0442,0.0515 0.09305,0.0984 0.144532,0.14258 0.04697,0.0554 0.09704,0.10727 0.152344,0.1543 0.04505,0.0526 0.09383,0.10143 0.146484,0.14648 0.04703,0.0553 0.09893,0.10538 0.154297,0.15235 0.04416,0.0515 0.09113,0.10033 0.142578,0.14453 0.04652,0.0549 0.09763,0.10563 0.152344,0.15234 0.04621,0.0541 0.09616,0.10428 0.15039,0.15039 0.04505,0.0527 0.09383,0.10143 0.146485,0.14649 0.0467,0.0549 0.09743,0.10564 0.152343,0.15234 0.04505,0.0526 0.09383,0.10143 0.146485,0.14648 0.04703,0.0553 0.09893,0.10538 0.154297,0.15235 0.04508,0.0526 0.09381,0.10151 0.146484,0.14648 0.04497,0.0527 0.09392,0.1014 0.146484,0.14649 0.04697,0.0554 0.09704,0.10726 0.152344,0.15429 0.04505,0.0527 0.09383,0.10144 0.146485,0.14649 0.04703,0.0553 0.09893,0.10537 0.154296,0.15234 0.312139,0.36389 0.798582,0.55274 1.47461,0.55274 1.255914,0 1.884765,-0.62691 1.884765,-1.88282 l 0,-10.318356 c 0.0045,0.0039 0.0091,0.0079 0.01367,0.01172 0.04557,0.05358 0.09504,0.102785 0.148438,0.148438 0.04487,0.05275 0.09403,0.101416 0.146484,0.146484 0.04627,0.05467 0.09797,0.103941 0.152344,0.150391 0.04515,0.0532 0.09364,0.103035 0.146484,0.148437 0.04627,0.05467 0.09797,0.103941 0.152344,0.150391 0.04585,0.05403 0.09465,0.104404 0.148437,0.15039 0.04596,0.05404 0.09647,0.104416 0.150391,0.150391 0.04464,0.05237 0.09436,0.09975 0.146485,0.144531 0.04563,0.054 0.09491,0.104399 0.148437,0.150391 0.04627,0.05467 0.09797,0.103941 0.152344,0.150391 0.04548,0.05359 0.09515,0.102759 0.148437,0.148437 0.04598,0.05418 0.09643,0.104297 0.150391,0.150391 0.04585,0.05403 0.09465,0.104404 0.148437,0.15039 0.04487,0.05276 0.09403,0.101416 0.146485,0.146485 0.04627,0.05467 0.09797,0.10394 0.152343,0.15039 0.04515,0.0532 0.09364,0.103035 0.146485,0.148438 0.04627,0.05467 0.09797,0.10394 0.152344,0.15039 0.04585,0.05403 0.09465,0.104404 0.148437,0.150391 0.04596,0.05404 0.09647,0.104416 0.150391,0.150391 0.04464,0.05237 0.09436,0.09975 0.146484,0.144531 0.04563,0.054 0.09491,0.104398 0.148438,0.15039 0.04627,0.05467 0.09797,0.103941 0.152343,0.150391 0.04515,0.0532 0.09364,0.103035 0.146485,0.148438 0.04627,0.05467 0.09797,0.10394 0.152343,0.15039 0.04585,0.05403 0.09465,0.104398 0.148438,0.150388 0.04487,0.0528 0.09403,0.10142 0.146484,0.14649 0.04627,0.0547 0.09797,0.10394 0.152344,0.15039 0.04515,0.0532 0.09364,0.10303 0.146484,0.14843 0.04627,0.0547 0.09797,0.10394 0.152344,0.15039 0.04548,0.0536 0.09515,0.10276 0.148438,0.14844 0.04657,0.0549 0.09759,0.10577 0.152344,0.15235 0.04448,0.0521 0.09262,0.0999 0.144531,0.14453 0.04563,0.054 0.09491,0.1044 0.148437,0.15039 0.04627,0.0547 0.09797,0.10394 0.152344,0.15039 0.04515,0.0532 0.09364,0.10303 0.146484,0.14844 0.04627,0.0547 0.09797,0.10394 0.152344,0.15039 0.04585,0.054 0.09465,0.1044 0.148438,0.15039 0.04487,0.0528 0.09403,0.10141 0.146484,0.14648 0.04627,0.0547 0.09797,0.10394 0.152344,0.15039 0.04515,0.0532 0.09364,0.10304 0.146484,0.14844 0.04627,0.0547 0.09797,0.10394 0.152344,0.15039 0.04548,0.0536 0.09515,0.10276 0.148437,0.14844 0.04598,0.0542 0.09643,0.1043 0.150391,0.15039 0.04585,0.054 0.09465,0.1044 0.148438,0.15039 0.04487,0.0528 0.09403,0.10142 0.146484,0.14648 0.04627,0.0547 0.09797,0.10394 0.152344,0.15039 0.04515,0.0532 0.09364,0.10304 0.146484,0.14844 0.04627,0.0547 0.09797,0.10394 0.152344,0.15039 0.04585,0.054 0.09465,0.10441 0.148437,0.15039 0.04511,0.053 0.09566,0.10122 0.148438,0.14649 0.04606,0.0543 0.09631,0.1042 0.15039,0.15039 0.04515,0.0532 0.09364,0.10303 0.146485,0.14844 0.04627,0.0547 0.09797,0.10394 0.152344,0.15039 0.04548,0.0536 0.09515,0.10276 0.148437,0.14843 0.04598,0.0542 0.09643,0.1043 0.150391,0.15039 0.04585,0.054 0.09465,0.10441 0.148437,0.1504 0.04487,0.0528 0.09403,0.10141 0.146485,0.14648 0.04627,0.0547 0.09797,0.10394 0.152343,0.15039 0.04515,0.0532 0.09364,0.10304 0.146485,0.14844 0.04627,0.0547 0.09797,0.10394 0.152343,0.15039 0.04585,0.054 0.09465,0.1044 0.148438,0.15039 0.04596,0.054 0.09647,0.10441 0.150391,0.15039 0.04464,0.0524 0.09436,0.0998 0.146484,0.14453 0.04563,0.054 0.09491,0.1044 0.148437,0.15039 0.04627,0.0547 0.09797,0.10394 0.152344,0.15039 0.04548,0.0536 0.09515,0.10276 0.148438,0.14844 0.04598,0.0542 0.09643,0.1043 0.15039,0.15039 0.04585,0.054 0.09465,0.1044 0.148438,0.15039 0.04487,0.0528 0.09403,0.10142 0.146484,0.14649 0.04627,0.0547 0.09797,0.10394 0.152344,0.15039 0.04515,0.0532 0.09364,0.10303 0.146484,0.14843 0.04627,0.0547 0.09797,0.10394 0.152344,0.15039 0.04585,0.054 0.09465,0.10441 0.148437,0.15039 0.04596,0.054 0.09647,0.10442 0.150391,0.1504 0.04464,0.0524 0.09436,0.0998 0.146485,0.14453 0.04563,0.054 0.09491,0.10439 0.148437,0.15039 0.04627,0.0547 0.09797,0.10394 0.152344,0.15039 0.04548,0.0536 0.09515,0.10276 0.148437,0.14843 0.307933,0.36288 0.789238,0.55079 1.455078,0.55079 1.255915,0 1.882813,-0.62691 1.882813,-1.88282 l 0,-14.994136 c 0,-2.580645 -0.920859,-4.781812 -2.761719,-6.605469 -0.02055,-0.02055 -0.04186,-0.03827 -0.0625,-0.05859 -0.02984,-0.03026 -0.0556,-0.06174 -0.08594,-0.0918 -0.02424,-0.02424 -0.04986,-0.04444 -0.07422,-0.06836 -0.02597,-0.02625 -0.04788,-0.05398 -0.07422,-0.08008 -0.02486,-0.02486 -0.05118,-0.04578 -0.07617,-0.07031 -0.02589,-0.02618 -0.04795,-0.05406 -0.07422,-0.08008 -0.02424,-0.02424 -0.04986,-0.04444 -0.07422,-0.06836 -0.02597,-0.02625 -0.04788,-0.05398 -0.07422,-0.08008 -0.02424,-0.02424 -0.04986,-0.04444 -0.07422,-0.06836 -0.02654,-0.02684 -0.04924,-0.05535 -0.07617,-0.08203 -0.02424,-0.02424 -0.04986,-0.04444 -0.07422,-0.06836 -0.02597,-0.02625 -0.04788,-0.05398 -0.07422,-0.08008 -0.02424,-0.02424 -0.04986,-0.04444 -0.07422,-0.06836 -0.02597,-0.02625 -0.04788,-0.05398 -0.07422,-0.08008 -0.02416,-0.02416 -0.04993,-0.04451 -0.07422,-0.06836 -0.02661,-0.02692 -0.04916,-0.05527 -0.07617,-0.08203 -0.02424,-0.02424 -0.04986,-0.04444 -0.07422,-0.06836 -0.02597,-0.02625 -0.04788,-0.05398 -0.07422,-0.08008 -0.02486,-0.02486 -0.05118,-0.04578 -0.07617,-0.07031 -0.02589,-0.02618 -0.04795,-0.05406 -0.07422,-0.08008 -0.02424,-0.02424 -0.04986,-0.04444 -0.07422,-0.06836 -0.02597,-0.02625 -0.04788,-0.05398 -0.07422,-0.08008 -0.02755,-0.02755 -0.05627,-0.05099 -0.08398,-0.07813 -0.02301,-0.0232 -0.04311,-0.04723 -0.06641,-0.07031 -0.02055,-0.02055 -0.04186,-0.03828 -0.0625,-0.05859 -0.02984,-0.03026 -0.0556,-0.06174 -0.08594,-0.0918 -0.02424,-0.02424 -0.04986,-0.04444 -0.07422,-0.06836 -0.02597,-0.02625 -0.04788,-0.05398 -0.07422,-0.08008 -0.02385,-0.02385 -0.05025,-0.04287 -0.07422,-0.06641 -0.02691,-0.02723 -0.04886,-0.05692 -0.07617,-0.08398 -0.02424,-0.02424 -0.04986,-0.04444 -0.07422,-0.06836 -0.02597,-0.02625 -0.04788,-0.05398 -0.07422,-0.08008 -0.02486,-0.02486 -0.05118,-0.04578 -0.07617,-0.07031 -0.02589,-0.02618 -0.04795,-0.05406 -0.07422,-0.08008 -0.02424,-0.02424 -0.04986,-0.04444 -0.07422,-0.06836 -0.02597,-0.02625 -0.04788,-0.05398 -0.07422,-0.08008 -0.02424,-0.02424 -0.04986,-0.04444 -0.07422,-0.06836 -0.02596,-0.02625 -0.04788,-0.05398 -0.07422,-0.08008 -0.02417,-0.02417 -0.04993,-0.04451 -0.07422,-0.06836 -0.02661,-0.02692 -0.04916,-0.05527 -0.07617,-0.08203 -0.02424,-0.02424 -0.04986,-0.04444 -0.07422,-0.06836 -0.02597,-0.02625 -0.04788,-0.05398 -0.07422,-0.08008 -0.02486,-0.02486 -0.05118,-0.04578 -0.07617,-0.07031 -0.02589,-0.02617 -0.04795,-0.05406 -0.07422,-0.08008 -0.02424,-0.02424 -0.04986,-0.04444 -0.07422,-0.06836 -0.02597,-0.02625 -0.04788,-0.05398 -0.07422,-0.08008 -0.02755,-0.02755 -0.05627,-0.05099 -0.08398,-0.07813 -0.02301,-0.02321 -0.0431,-0.04723 -0.06641,-0.07031 -0.02055,-0.02055 -0.04186,-0.03828 -0.0625,-0.05859 -0.02984,-0.03026 -0.0556,-0.06174 -0.08594,-0.0918 -0.02424,-0.02424 -0.04986,-0.04444 -0.07422,-0.06836 -0.02597,-0.02625 -0.04788,-0.05398 -0.07422,-0.08008 -0.02385,-0.02385 -0.05025,-0.04287 -0.07422,-0.06641 -0.02691,-0.02723 -0.04886,-0.05692 -0.07617,-0.08398 -0.02424,-0.02424 -0.04986,-0.04444 -0.07422,-0.06836 -0.02596,-0.02625 -0.04788,-0.05398 -0.07422,-0.08008 -0.02486,-0.02486 -0.05118,-0.04578 -0.07617,-0.07031 -0.02589,-0.02617 -0.04795,-0.05406 -0.07422,-0.08008 -0.02424,-0.02424 -0.04986,-0.04444 -0.07422,-0.06836 -0.02597,-0.02625 -0.04788,-0.05398 -0.07422,-0.08008 -0.02424,-0.02424 -0.04986,-0.04444 -0.07422,-0.06836 -0.02597,-0.02625 -0.04788,-0.05398 -0.07422,-0.08008 -0.02417,-0.02417 -0.04993,-0.04451 -0.07422,-0.06836 -0.02661,-0.02692 -0.04916,-0.05527 -0.07617,-0.08203 -0.02424,-0.02424 -0.04986,-0.04444 -0.07422,-0.06836 -0.02597,-0.02625 -0.04788,-0.05398 -0.07422,-0.08008 -0.02486,-0.02486 -0.05118,-0.04578 -0.07617,-0.07031 -0.02589,-0.02618 -0.04795,-0.05406 -0.07422,-0.08008 -0.02424,-0.02424 -0.04986,-0.04444 -0.07422,-0.06836 -0.02597,-0.02625 -0.04788,-0.05398 -0.07422,-0.08008 -0.02424,-0.02424 -0.04986,-0.04444 -0.07422,-0.06836 -0.02654,-0.02684 -0.04924,-0.05535 -0.07617,-0.08203 -0.02424,-0.02424 -0.04986,-0.04444 -0.07422,-0.06836 -0.02596,-0.02625 -0.04788,-0.05398 -0.07422,-0.08008 -0.02424,-0.02424 -0.04986,-0.04444 -0.07422,-0.06836 -0.02597,-0.02625 -0.04788,-0.05398 -0.07422,-0.08008 -0.02385,-0.02385 -0.05025,-0.04287 -0.07422,-0.06641 -0.02691,-0.02723 -0.04886,-0.05692 -0.07617,-0.08398 -0.02424,-0.02424 -0.04986,-0.04444 -0.07422,-0.06836 -0.02597,-0.02625 -0.04788,-0.05398 -0.07422,-0.08008 -0.02486,-0.02486 -0.05118,-0.04578 -0.07617,-0.07031 -0.02589,-0.02618 -0.04795,-0.05406 -0.07422,-0.08008 -0.02424,-0.02424 -0.04986,-0.04444 -0.07422,-0.06836 -0.02597,-0.02625 -0.04788,-0.05398 -0.07422,-0.08008 -0.02755,-0.02755 -0.05627,-0.05099 -0.08398,-0.07813 -0.02301,-0.0232 -0.04311,-0.04723 -0.06641,-0.07031 -0.02055,-0.02055 -0.04186,-0.03828 -0.0625,-0.05859 -0.02984,-0.03026 -0.0556,-0.06174 -0.08594,-0.0918 -0.02424,-0.02424 -0.04986,-0.04444 -0.07422,-0.06836 -0.02597,-0.02625 -0.04788,-0.05398 -0.07422,-0.08008 -0.02486,-0.02487 -0.05118,-0.04578 -0.07617,-0.07031 -0.02589,-0.02618 -0.04795,-0.05406 -0.07422,-0.08008 -0.02424,-0.02424 -0.04986,-0.04444 -0.07422,-0.06836 -0.02597,-0.02625 -0.04788,-0.05398 -0.07422,-0.08008 -0.02424,-0.02424 -0.04986,-0.04444 -0.07422,-0.06836 -0.02654,-0.02684 -0.04924,-0.05535 -0.07617,-0.08203 -0.02424,-0.02424 -0.04986,-0.04444 -0.07422,-0.06836 -0.02597,-0.02625 -0.04788,-0.05398 -0.07422,-0.08008 -0.02424,-0.02424 -0.04986,-0.04444 -0.07422,-0.06836 -0.02597,-0.02625 -0.04788,-0.05398 -0.07422,-0.08008 -0.02417,-0.02417 -0.04993,-0.04451 -0.07422,-0.06836 -0.02661,-0.02692 -0.04916,-0.05527 -0.07617,-0.08203 -0.02424,-0.02424 -0.04986,-0.04444 -0.07422,-0.06836 -0.02597,-0.02625 -0.04788,-0.05398 -0.07422,-0.08008 -0.02486,-0.02486 -0.05118,-0.04578 -0.07617,-0.07031 -0.02589,-0.02617 -0.04795,-0.05406 -0.07422,-0.08008 -0.02424,-0.02424 -0.04986,-0.04444 -0.07422,-0.06836 -0.02597,-0.02625 -0.04788,-0.05398 -0.07422,-0.08008 -0.02755,-0.02755 -0.05627,-0.05099 -0.08398,-0.07813 -0.02301,-0.0232 -0.0431,-0.04723 -0.06641,-0.07031 -0.02055,-0.02055 -0.04186,-0.03828 -0.0625,-0.05859 -0.02984,-0.03026 -0.0556,-0.06174 -0.08594,-0.0918 -0.02424,-0.02424 -0.04986,-0.04444 -0.07422,-0.06836 -0.02597,-0.02625 -0.04788,-0.05398 -0.07422,-0.08008 -0.02486,-0.02486 -0.05118,-0.04578 -0.07617,-0.07031 -0.02589,-0.02617 -0.04795,-0.05406 -0.07422,-0.08008 -0.02424,-0.02424 -0.04986,-0.04444 -0.07422,-0.06836 -0.02597,-0.02625 -0.04788,-0.05398 -0.07422,-0.08008 -0.02424,-0.02424 -0.04986,-0.04444 -0.07422,-0.06836 -0.02654,-0.02684 -0.04924,-0.05535 -0.07617,-0.08203 -0.02424,-0.02424 -0.04986,-0.04444 -0.07422,-0.06836 -0.02597,-0.02625 -0.04788,-0.05398 -0.07422,-0.08008 -0.02424,-0.02424 -0.04986,-0.04444 -0.07422,-0.06836 -0.02597,-0.02625 -0.04788,-0.05398 -0.07422,-0.08008 -0.02417,-0.02417 -0.04993,-0.04451 -0.07422,-0.06836 -0.02661,-0.02692 -0.04916,-0.05527 -0.07617,-0.08203 -0.02424,-0.02424 -0.04986,-0.04444 -0.07422,-0.06836 -0.02597,-0.02625 -0.04788,-0.05398 -0.07422,-0.08008 -0.02486,-0.02486 -0.05118,-0.04578 -0.07617,-0.07031 -0.02589,-0.02618 -0.04795,-0.05406 -0.07422,-0.08008 -0.02424,-0.02424 -0.04986,-0.04444 -0.07422,-0.06836 -0.02597,-0.02625 -0.04788,-0.05398 -0.07422,-0.08008 -0.02755,-0.02755 -0.05627,-0.05099 -0.08398,-0.07813 -0.02301,-0.02321 -0.0431,-0.04723 -0.06641,-0.07031 -0.02055,-0.02055 -0.04186,-0.03827 -0.0625,-0.05859 -0.02984,-0.03026 -0.0556,-0.06174 -0.08594,-0.0918 -0.02424,-0.02424 -0.04986,-0.04444 -0.07422,-0.06836 -0.02597,-0.02625 -0.04788,-0.05398 -0.07422,-0.08008 -0.02486,-0.02486 -0.05118,-0.04578 -0.07617,-0.07031 -0.02589,-0.02618 -0.04795,-0.05406 -0.07422,-0.08008 -0.02424,-0.02424 -0.04986,-0.04444 -0.07422,-0.06836 -0.02597,-0.02625 -0.04788,-0.05398 -0.07422,-0.08008 -0.02424,-0.02424 -0.04986,-0.04444 -0.07422,-0.06836 -0.02654,-0.02684 -0.04924,-0.05535 -0.07617,-0.08203 -0.02424,-0.02424 -0.04986,-0.04444 -0.07422,-0.06836 -0.02597,-0.02625 -0.04788,-0.05398 -0.07422,-0.08008 -0.02424,-0.02424 -0.04986,-0.04444 -0.07422,-0.06836 -0.02597,-0.02625 -0.04788,-0.05398 -0.07422,-0.08008 -0.02416,-0.02416 -0.04993,-0.04451 -0.07422,-0.06836 -0.02661,-0.02692 -0.04916,-0.05527 -0.07617,-0.08203 -0.02424,-0.02424 -0.04986,-0.04444 -0.07422,-0.06836 -0.02597,-0.02625 -0.04788,-0.05398 -0.07422,-0.08008 -0.02486,-0.02486 -0.05118,-0.04578 -0.07617,-0.07031 -0.02589,-0.02618 -0.04795,-0.05406 -0.07422,-0.08008 -0.02424,-0.02424 -0.04986,-0.04444 -0.07422,-0.06836 -0.02597,-0.02625 -0.04788,-0.05398 -0.07422,-0.08008 -0.0279,-0.0279 -0.05788,-0.05065 -0.08594,-0.07813 -0.02269,-0.02288 -0.04147,-0.04755 -0.06445,-0.07031 -0.02089,-0.02089 -0.04347,-0.03794 -0.06445,-0.05859 -0.02953,-0.02994 -0.05397,-0.06206 -0.08398,-0.0918 -0.0249,-0.0249 -0.05114,-0.04575 -0.07617,-0.07031 -0.02532,-0.02558 -0.04659,-0.05269 -0.07227,-0.07813 -0.02483,-0.02483 -0.05121,-0.04582 -0.07617,-0.07031 -0.02493,-0.02521 -0.04698,-0.05111 -0.07227,-0.07617 -0.0191,-0.621137 -0.205298,-1.076337 -0.550781,-1.371094 -0.04504,-0.05279 -0.09383,-0.101316 -0.146485,-0.146484 -0.04697,-0.05537 -0.09704,-0.107268 -0.152343,-0.154297 -0.04505,-0.05265 -0.09383,-0.101431 -0.146485,-0.146484 -0.04703,-0.05531 -0.09893,-0.105374 -0.154297,-0.152344 -0.04534,-0.05286 -0.09346,-0.103254 -0.146484,-0.148437 -0.04561,-0.05333 -0.09504,-0.102901 -0.148437,-0.148438 -0.04554,-0.0534 -0.09511,-0.102831 -0.148438,-0.148437 -0.04518,-0.05303 -0.09557,-0.10114 -0.148438,-0.146485 -0.0473,-0.05576 -0.09854,-0.106995 -0.154296,-0.154297 -0.04475,-0.05217 -0.0923,-0.101792 -0.144532,-0.146484 -0.04703,-0.05531 -0.09893,-0.105374 -0.154296,-0.152344 -0.04517,-0.05266 -0.0937,-0.101447 -0.146485,-0.146484 -0.04504,-0.05279 -0.09383,-0.101317 -0.146484,-0.146485 -0.04697,-0.05537 -0.09704,-0.107268 -0.152344,-0.154296 -0.04469,-0.05223 -0.09431,-0.09978 -0.146484,-0.144532 -0.0473,-0.05576 -0.09854,-0.106995 -0.154297,-0.154296 -0.04534,-0.05286 -0.09346,-0.103254 -0.146485,-0.148438 -0.04561,-0.05333 -0.09504,-0.102901 -0.148437,-0.148438 -0.04554,-0.0534 -0.09511,-0.102831 -0.148438,-0.148437 -0.04518,-0.05303 -0.09557,-0.101139 -0.148437,-0.146484 -0.0473,-0.05576 -0.09854,-0.106996 -0.154297,-0.154297 -0.04475,-0.05217 -0.0923,-0.101793 -0.144531,-0.146485 -0.04703,-0.05531 -0.09893,-0.105374 -0.154297,-0.152343 -0.04517,-0.05266 -0.0937,-0.101448 -0.146484,-0.146485 -0.04504,-0.05279 -0.09383,-0.101316 -0.146485,-0.146484 -0.04697,-0.05537 -0.09704,-0.107268 -0.152344,-0.154297 -0.04469,-0.05223 -0.09431,-0.09978 -0.146484,-0.144531 -0.0473,-0.05576 -0.09854,-0.106995 -0.154297,-0.154297 -0.04534,-0.05286 -0.09346,-0.103254 -0.146484,-0.148438 -0.04561,-0.05333 -0.09504,-0.1029 -0.148438,-0.148437 -0.04554,-0.0534 -0.09511,-0.102832 -0.148437,-0.148438 -0.04518,-0.05302 -0.09557,-0.101139 -0.148438,-0.146484 -0.04697,-0.05537 -0.09704,-0.107268 -0.152343,-0.154297 -0.04505,-0.05265 -0.09383,-0.101431 -0.146485,-0.146484 -0.04703,-0.05531 -0.09893,-0.105374 -0.154297,-0.152344 -0.04517,-0.05266 -0.0937,-0.101448 -0.146484,-0.146484 -0.04504,-0.05279 -0.09383,-0.101317 -0.146484,-0.146485 -0.04697,-0.05537 -0.09704,-0.107268 -0.152344,-0.154297 -0.04469,-0.05223 -0.09431,-0.09978 -0.146485,-0.144531 -0.0473,-0.05576 -0.09854,-0.106995 -0.154297,-0.154297 -0.04534,-0.05286 -0.09346,-0.103254 -0.146484,-0.148437 -0.04561,-0.05333 -0.09504,-0.102901 -0.148437,-0.148438 -0.04554,-0.0534 -0.09511,-0.102831 -0.148438,-0.148437 -0.04518,-0.05303 -0.09557,-0.101139 -0.148437,-0.146485 -0.04697,-0.05537 -0.09704,-0.107268 -0.152344,-0.154297 -0.04505,-0.05265 -0.09383,-0.101431 -0.146484,-0.146484 -0.04703,-0.05531 -0.09893,-0.105374 -0.154297,-0.152344 -0.04517,-0.05266 -0.0937,-0.101447 -0.146485,-0.146484 -0.04504,-0.05279 -0.09383,-0.101317 -0.146484,-0.146484 -0.04697,-0.05537 -0.09704,-0.107269 -0.152344,-0.154297 -0.04469,-0.05223 -0.09431,-0.09978 -0.146484,-0.144531 -0.0473,-0.05576 -0.09854,-0.106996 -0.154297,-0.154297 -0.04475,-0.05217 -0.0923,-0.101793 -0.144531,-0.146485 -0.04703,-0.05531 -0.09893,-0.105374 -0.154297,-0.152344 -0.04517,-0.05266 -0.0937,-0.101447 -0.146485,-0.146484 -0.04504,-0.05279 -0.09383,-0.101317 -0.146484,-0.146484 -0.04697,-0.05537 -0.09704,-0.107268 -0.152344,-0.154297 -0.04505,-0.05265 -0.09383,-0.101432 -0.146484,-0.146485 -0.04703,-0.05531 -0.09893,-0.105373 -0.154297,-0.152343 -0.04534,-0.05286 -0.09346,-0.103254 -0.146484,-0.148438 -0.04561,-0.05333 -0.09504,-0.1029 -0.148438,-0.148437 -0.04554,-0.0534 -0.09511,-0.102832 -0.148437,-0.148438 -0.04518,-0.05302 -0.09557,-0.101139 -0.148438,-0.146484 -0.0473,-0.05576 -0.09854,-0.106995 -0.154297,-0.154297 -0.04475,-0.05217 -0.0923,-0.101793 -0.144531,-0.146484 -0.04703,-0.05531 -0.09893,-0.105374 -0.154297,-0.152344 -0.04517,-0.05266 -0.0937,-0.101448 -0.146484,-0.146485 -0.04504,-0.05279 -0.09383,-0.101316 -0.146485,-0.146484 -0.04697,-0.05537 -0.09704,-0.107268 -0.152343,-0.154297 -0.04505,-0.05265 -0.09383,-0.101431 -0.146485,-0.146484 -0.04703,-0.05531 -0.09893,-0.105374 -0.154297,-0.152344 -0.04534,-0.05286 -0.09346,-0.103254 -0.146484,-0.148437 -0.04561,-0.05333 -0.09504,-0.102901 -0.148437,-0.148438 -0.04554,-0.0534 -0.09511,-0.102831 -0.148438,-0.148437 -0.04518,-0.05302 -0.09557,-0.10114 -0.148438,-0.146485 -0.0473,-0.05576 -0.09854,-0.106995 -0.154296,-0.154297 -0.04475,-0.05217 -0.0923,-0.101792 -0.144532,-0.146484 -0.04703,-0.05531 -0.09893,-0.105374 -0.154296,-0.152344 -0.04517,-0.05266 -0.0937,-0.101447 -0.146485,-0.146484 -0.04504,-0.05279 -0.09383,-0.101317 -0.146484,-0.146485 -0.04697,-0.05537 -0.09703,-0.107268 -0.152344,-0.154296 -0.04469,-0.05223 -0.09431,-0.09978 -0.146484,-0.144532 -0.0473,-0.05576 -0.09854,-0.106995 -0.154297,-0.154296 -0.04534,-0.05286 -0.09346,-0.103254 -0.146485,-0.148438 -0.04561,-0.05333 -0.09504,-0.102901 -0.148437,-0.148438 -0.04554,-0.0534 -0.09511,-0.102831 -0.148438,-0.148437 -0.04518,-0.05302 -0.09557,-0.101139 -0.148437,-0.146484 -0.0473,-0.05576 -0.09854,-0.106996 -0.154297,-0.154297 -0.04475,-0.05217 -0.0923,-0.101793 -0.144531,-0.146485 -0.04703,-0.05531 -0.09893,-0.105374 -0.154297,-0.152343 -0.04517,-0.05266 -0.0937,-0.101448 -0.146484,-0.146485 -0.04504,-0.05279 -0.09383,-0.101316 -0.146485,-0.146484 -0.04697,-0.05537 -0.09703,-0.107268 -0.152344,-0.154297 -0.04469,-0.05223 -0.09431,-0.09978 -0.146484,-0.144531 -0.0473,-0.05576 -0.09854,-0.106995 -0.154297,-0.154297 -0.04534,-0.05286 -0.09346,-0.103254 -0.146484,-0.148438 -0.04561,-0.05333 -0.09504,-0.1029 -0.148438,-0.148437 -0.04554,-0.0534 -0.09511,-0.102832 -0.148437,-0.148438 -0.04518,-0.05302 -0.09557,-0.101139 -0.148438,-0.146484 -0.04697,-0.05537 -0.09703,-0.107268 -0.152343,-0.154297 -0.04505,-0.05265 -0.09383,-0.101431 -0.146485,-0.146484 -0.04703,-0.05531 -0.09893,-0.105374 -0.154297,-0.152344 -0.04517,-0.05266 -0.0937,-0.101448 -0.146484,-0.146484 -0.04504,-0.05279 -0.09383,-0.101317 -0.146484,-0.146485 -0.04697,-0.05537 -0.09704,-0.107268 -0.152344,-0.154297 -0.04469,-0.05223 -0.09431,-0.09978 -0.146485,-0.144531 -0.0473,-0.05576 -0.09854,-0.106995 -0.154297,-0.154297 -0.04535,-0.05286 -0.09346,-0.103254 -0.146484,-0.148437 -0.04561,-0.05333 -0.09504,-0.102901 -0.148437,-0.148438 -0.04554,-0.0534 -0.09511,-0.102831 -0.148438,-0.148437 -0.04518,-0.05302 -0.09557,-0.101139 -0.148437,-0.146485 -0.04697,-0.05537 -0.09703,-0.107268 -0.152344,-0.154297 -0.04505,-0.05265 -0.09383,-0.101431 -0.146484,-0.146484 -0.04703,-0.05531 -0.09893,-0.105374 -0.154297,-0.152344 -0.04517,-0.05266 -0.0937,-0.101447 -0.146485,-0.146484 -0.04504,-0.05279 -0.09383,-0.101317 -0.146484,-0.146484 -0.04697,-0.05537 -0.09703,-0.107269 -0.152344,-0.154297 -0.04469,-0.05223 -0.09431,-0.09978 -0.146484,-0.144531 -0.0473,-0.05576 -0.09854,-0.106996 -0.154297,-0.154297 -0.04475,-0.05217 -0.0923,-0.101793 -0.144531,-0.146485 -0.04703,-0.05531 -0.09893,-0.105374 -0.154297,-0.152344 -0.04517,-0.05266 -0.0937,-0.101447 -0.146485,-0.146484 -0.04504,-0.05279 -0.09383,-0.101317 -0.146484,-0.146484 -0.04697,-0.05537 -0.09703,-0.107268 -0.152344,-0.154297 -0.04505,-0.05265 -0.09383,-0.101432 -0.146484,-0.146485 -0.04703,-0.05531 -0.09893,-0.105373 -0.154297,-0.152343 -0.04534,-0.05286 -0.09346,-0.103254 -0.146484,-0.148438 -0.04561,-0.05333 -0.09504,-0.1029 -0.148438,-0.148437 -0.04554,-0.0534 -0.09511,-0.102832 -0.148437,-0.148438 -0.04518,-0.05302 -0.09557,-0.101139 -0.148438,-0.146484 -0.0473,-0.05576 -0.09854,-0.106995 -0.154297,-0.154297 -0.04475,-0.05217 -0.0923,-0.101793 -0.144531,-0.146484 -0.04703,-0.05531 -0.09893,-0.105374 -0.154297,-0.152344 -0.04517,-0.05266 -0.0937,-0.101448 -0.146484,-0.146485 -0.04504,-0.05279 -0.09383,-0.101316 -0.146485,-0.146484 -0.04697,-0.05537 -0.09703,-0.107268 -0.152343,-0.154297 -0.04505,-0.05265 -0.09383,-0.101431 -0.146485,-0.146484 -0.04703,-0.05531 -0.09893,-0.105374 -0.154297,-0.152344 -0.04534,-0.05286 -0.09346,-0.103254 -0.146484,-0.148437 -0.04561,-0.05333 -0.09504,-0.102901 -0.148437,-0.148438 -0.04554,-0.0534 -0.09511,-0.102831 -0.148438,-0.148437 -0.04518,-0.05302 -0.09557,-0.10114 -0.148438,-0.146485 -0.0473,-0.05576 -0.09854,-0.106995 -0.154296,-0.154297 -0.04475,-0.05217 -0.0923,-0.101792 -0.144532,-0.146484 -0.04703,-0.05531 -0.09893,-0.105374 -0.154296,-0.152344 -0.04517,-0.05266 -0.0937,-0.101447 -0.146485,-0.146484 -0.04504,-0.05279 -0.09383,-0.101317 -0.146484,-0.146485 -0.04697,-0.05537 -0.09703,-0.107268 -0.152344,-0.154296 -0.04469,-0.05223 -0.09431,-0.09978 -0.146484,-0.144532 -0.0473,-0.05576 -0.09854,-0.106995 -0.154297,-0.154296 -0.04534,-0.05286 -0.09346,-0.103254 -0.146485,-0.148438 -0.04561,-0.05333 -0.09504,-0.102901 -0.148437,-0.148438 -0.04554,-0.0534 -0.09511,-0.102831 -0.148438,-0.148437 -0.04518,-0.05302 -0.09557,-0.101139 -0.148437,-0.146484 -0.0473,-0.05576 -0.09854,-0.106996 -0.154297,-0.154297 -0.04475,-0.05217 -0.0923,-0.101793 -0.144531,-0.146485 -0.04703,-0.05531 -0.09893,-0.105374 -0.154297,-0.152343 -0.04517,-0.05266 -0.0937,-0.101448 -0.146484,-0.146485 -0.04504,-0.05279 -0.09383,-0.101316 -0.146485,-0.146484 -0.04697,-0.05537 -0.09703,-0.107268 -0.152344,-0.154297 -0.04469,-0.05223 -0.09431,-0.09978 -0.146484,-0.144531 -0.0473,-0.05576 -0.09854,-0.106995 -0.154297,-0.154297 -0.04534,-0.05286 -0.09346,-0.103254 -0.146484,-0.148438 -0.04561,-0.05333 -0.09504,-0.1029 -0.148438,-0.148437 -0.04554,-0.0534 -0.09511,-0.102832 -0.148437,-0.148438 -0.04518,-0.05302 -0.09557,-0.101139 -0.148438,-0.146484 -0.04697,-0.05537 -0.09703,-0.107268 -0.152343,-0.154297 -0.04505,-0.05265 -0.09383,-0.101431 -0.146485,-0.146484 -0.04703,-0.05531 -0.09893,-0.105374 -0.154297,-0.152344 -0.04517,-0.05266 -0.0937,-0.101448 -0.146484,-0.146484 -0.04504,-0.05279 -0.09383,-0.101317 -0.146484,-0.146485 -0.04697,-0.05537 -0.09704,-0.107268 -0.152344,-0.154297 -0.04469,-0.05223 -0.09431,-0.09978 -0.146485,-0.144531 -0.0473,-0.05576 -0.09854,-0.106995 -0.154297,-0.154297 -0.04535,-0.05286 -0.09346,-0.103254 -0.146484,-0.148437 -0.04561,-0.05333 -0.09504,-0.102901 -0.148437,-0.148438 -0.04554,-0.0534 -0.09511,-0.102831 -0.148438,-0.148437 -0.04518,-0.05302 -0.09557,-0.101139 -0.148437,-0.146485 -0.04697,-0.05537 -0.09703,-0.107268 -0.152344,-0.154297 -0.04505,-0.05265 -0.09383,-0.101431 -0.146484,-0.146484 -0.04703,-0.05531 -0.09893,-0.105374 -0.154297,-0.152344 -0.04517,-0.05266 -0.0937,-0.101447 -0.146485,-0.146484 -0.04504,-0.05279 -0.09383,-0.101317 -0.146484,-0.146484 -0.04697,-0.05537 -0.09703,-0.107269 -0.152344,-0.154297 -0.04469,-0.05223 -0.09431,-0.09978 -0.146484,-0.144531 -0.0473,-0.05576 -0.09854,-0.106996 -0.154297,-0.154297 -0.04475,-0.05217 -0.0923,-0.101793 -0.144531,-0.146485 -0.04703,-0.05531 -0.09893,-0.105374 -0.154297,-0.152344 -0.04517,-0.05266 -0.0937,-0.101447 -0.146485,-0.146484 -0.04504,-0.05279 -0.09383,-0.101317 -0.146484,-0.146484 -0.04697,-0.05537 -0.09703,-0.107268 -0.152344,-0.154297 -0.04505,-0.05265 -0.09383,-0.101432 -0.146484,-0.146485 -0.04703,-0.05531 -0.09893,-0.105373 -0.154297,-0.152343 -0.04534,-0.05286 -0.09346,-0.103254 -0.146484,-0.148438 -0.04561,-0.05333 -0.09504,-0.1029 -0.148438,-0.148437 -0.04554,-0.0534 -0.09511,-0.102832 -0.148437,-0.148438 -0.04518,-0.05302 -0.09557,-0.101139 -0.148438,-0.146484 -0.0473,-0.05576 -0.09854,-0.106995 -0.154297,-0.154297 -0.312138,-0.363889 -0.798582,-0.552734 -1.474609,-0.552734 z"
       id="path4189"
       mask="none"
       inkscape:connector-curvature="0" />
    <path
       d="m 60.022757,76.832316 q 0,1.883871 -1.883871,1.883871 -1.858064,0 -1.858064,-1.883871 l 0,-14.993548 q 0,-2.322581 -1.67742,-3.974194 -1.651613,-1.651613 -3.948387,-1.651613 -2.322581,0 -3.974193,1.651613 -1.651613,1.651613 -1.651613,3.974194 l 0,14.993548 q 0,1.883871 -1.883871,1.883871 -1.883871,0 -1.883871,-1.883871 l 0,-33.729032 q 0,-1.883871 1.883871,-1.883871 1.883871,0 1.883871,1.883871 l 0,11.225806 q 2.477419,-1.858064 5.625806,-1.858064 3.845161,0 6.606452,2.76129 2.76129,2.735484 2.76129,6.606452 l 0,14.993548 z"
       style="font-style:normal;font-variant:normal;font-weight:500;font-stretch:normal;font-size:60px;line-height:100%;font-family:eurofurence;-inkscape-font-specification:'eurofurence Medium';text-align:center;letter-spacing:0px;word-spacing:0px;writing-mode:lr-tb;text-anchor:middle;fill:#ffffff;fill-opacity:1;stroke:none;stroke-width:1px;stroke-linecap:butt;stroke-linejoin:miter;stroke-opacity:1"
       id="path4170"
       inkscape:connector-curvature="0"
       mask="none" />
  </g>
  <g
     inkscape:groupmode="layer"
     id="layer3"
     inkscape:label="Texte">
    <flowRoot
       xml:space="preserve"
       id="flowRoot4148"
       style="font-style:normal;font-weight:normal;font-size:40px;line-height:125%;font-family:sans-serif;letter-spacing:0px;word-spacing:0px;fill:#000000;fill-opacity:1;stroke:none;stroke-width:1px;stroke-linecap:butt;stroke-linejoin:miter;stroke-opacity:1"><flowRegion
         id="flowRegion4150"><rect
           id="rect4152"
           width="111.42857"
           height="61.785713"
           x="84.285713"
           y="28.928572" /></flowRegion><flowPara
         id="flowPara4154" /></flowRoot>    <flowRoot
       xml:space="preserve"
       id="flowRoot4156"
       style="font-style:normal;font-weight:normal;font-size:40px;line-height:125%;font-family:sans-serif;letter-spacing:0px;word-spacing:0px;fill:#000000;fill-opacity:1;stroke:none;stroke-width:1px;stroke-linecap:butt;stroke-linejoin:miter;stroke-opacity:1"
       transform="translate(3.9999996,1.9999998)"><flowRegion
         id="flowRegion4158"><rect
           id="rect4160"
           width="330.35715"
           height="55.357151"
           x="80.357147"
           y="31.071428" /></flowRegion><flowPara
         id="flowPara4162"
         style="font-style:normal;font-variant:normal;font-weight:500;font-stretch:normal;font-size:55px;line-height:100%;font-family:eurofurence;-inkscape-font-specification:'eurofurence Medium'"><flowSpan
   style="font-style:normal;font-variant:normal;font-weight:500;font-stretch:normal;font-family:eurofurence;-inkscape-font-specification:'eurofurence Medium';fill:#002473;fill-opacity:1"
   id="flowSpan4284">h</flowSpan>acklol modifier</flowPara></flowRoot>  </g>
</svg>
